<mxfile host="app.diagrams.net" modified="2024-04-18T14:48:13.844Z" agent="Mozilla/5.0 (Windows NT 10.0; Win64; x64) AppleWebKit/537.36 (KHTML, like Gecko) Chrome/122.0.0.0 Safari/537.36" version="24.2.5" etag="6si0pQpVp-Ic5AxQCPmm" type="github">
  <diagram name="第 1 页" id="u3J1eDarqpzjKbPo_jnG">
    <mxGraphModel>
      <root>
        <mxCell id="0" />
        <mxCell id="1" parent="0" />
      </root>
    </mxGraphModel>
  </diagram>
</mxfile>
